<mxfile host="65bd71144e">
    <diagram id="vpX39ZpqmpaOASAffBax" name="Page-1">
        <mxGraphModel dx="1075" dy="1149" grid="1" gridSize="10" guides="1" tooltips="1" connect="1" arrows="1" fold="1" page="1" pageScale="1" pageWidth="850" pageHeight="1100" math="0" shadow="0">
            <root>
                <mxCell id="0"/>
                <mxCell id="1" parent="0"/>
                <mxCell id="18" style="edgeStyle=orthogonalEdgeStyle;html=1;exitX=0.25;exitY=1;exitDx=0;exitDy=0;entryX=0.5;entryY=0;entryDx=0;entryDy=0;fontSize=20;endArrow=open;endFill=0;endSize=15;" parent="1" source="2" target="7" edge="1">
                    <mxGeometry relative="1" as="geometry">
                        <Array as="points">
                            <mxPoint x="150.5" y="140"/>
                            <mxPoint x="107.5" y="140"/>
                        </Array>
                    </mxGeometry>
                </mxCell>
                <mxCell id="21" style="edgeStyle=orthogonalEdgeStyle;html=1;exitX=0.75;exitY=1;exitDx=0;exitDy=0;entryX=0;entryY=0;entryDx=40;entryDy=0;entryPerimeter=0;fontSize=20;endArrow=open;endFill=0;endSize=15;" parent="1" source="2" target="19" edge="1">
                    <mxGeometry relative="1" as="geometry"/>
                </mxCell>
                <mxCell id="2" value="" style="rounded=1;whiteSpace=wrap;html=1;arcSize=8;fillColor=#1ba1e2;strokeColor=#006EAF;fontColor=#ffffff;shadow=1;" parent="1" vertex="1">
                    <mxGeometry x="122.5" y="10" width="110" height="110" as="geometry"/>
                </mxCell>
                <mxCell id="3" value="&lt;span&gt;&amp;nbsp; Priority&lt;/span&gt;" style="rounded=1;whiteSpace=wrap;html=1;align=left;fillColor=#60a917;strokeColor=#2D7600;fontColor=#ffffff;shadow=1;" parent="1" vertex="1">
                    <mxGeometry x="132.5" y="70" width="90" height="40" as="geometry"/>
                </mxCell>
                <mxCell id="4" value="&amp;nbsp; Value" style="rounded=1;whiteSpace=wrap;html=1;align=left;fillColor=#fa6800;strokeColor=#C73500;fontColor=#000000;shadow=1;" parent="1" vertex="1">
                    <mxGeometry x="132.5" y="20" width="90" height="40" as="geometry"/>
                </mxCell>
                <mxCell id="5" value="y" style="rounded=1;whiteSpace=wrap;html=1;align=center;fontSize=20;shadow=0;" parent="1" vertex="1">
                    <mxGeometry x="182.5" y="20" width="40" height="40" as="geometry"/>
                </mxCell>
                <mxCell id="6" value="q" style="rounded=1;whiteSpace=wrap;html=1;align=center;fontSize=20;shadow=0;" parent="1" vertex="1">
                    <mxGeometry x="182.5" y="70" width="40" height="40" as="geometry"/>
                </mxCell>
                <mxCell id="14" style="edgeStyle=orthogonalEdgeStyle;html=1;exitX=0.25;exitY=1;exitDx=0;exitDy=0;entryX=0;entryY=0;entryDx=40;entryDy=0;entryPerimeter=0;fontSize=20;endArrow=open;endFill=0;endSize=15;" parent="1" source="7" target="12" edge="1">
                    <mxGeometry relative="1" as="geometry">
                        <mxPoint x="22.5" y="320" as="targetPoint"/>
                    </mxGeometry>
                </mxCell>
                <mxCell id="17" style="edgeStyle=orthogonalEdgeStyle;html=1;exitX=0.75;exitY=1;exitDx=0;exitDy=0;entryX=0;entryY=0;entryDx=40;entryDy=0;entryPerimeter=0;fontSize=20;endArrow=open;endFill=0;endSize=15;" parent="1" source="7" target="15" edge="1">
                    <mxGeometry relative="1" as="geometry"/>
                </mxCell>
                <mxCell id="7" value="" style="rounded=1;whiteSpace=wrap;html=1;arcSize=8;fillColor=#1ba1e2;strokeColor=#006EAF;fontColor=#ffffff;shadow=1;" parent="1" vertex="1">
                    <mxGeometry x="52.5" y="170" width="110" height="110" as="geometry"/>
                </mxCell>
                <mxCell id="8" value="&lt;span&gt;&amp;nbsp; Priority&lt;/span&gt;" style="rounded=1;whiteSpace=wrap;html=1;align=left;fillColor=#60a917;strokeColor=#2D7600;fontColor=#ffffff;shadow=1;" parent="1" vertex="1">
                    <mxGeometry x="62.5" y="230" width="90" height="40" as="geometry"/>
                </mxCell>
                <mxCell id="9" value="&amp;nbsp; Value" style="rounded=1;whiteSpace=wrap;html=1;align=left;fillColor=#fa6800;strokeColor=#C73500;fontColor=#000000;shadow=1;" parent="1" vertex="1">
                    <mxGeometry x="62.5" y="180" width="90" height="40" as="geometry"/>
                </mxCell>
                <mxCell id="10" value="x" style="rounded=1;whiteSpace=wrap;html=1;align=center;fontSize=20;shadow=0;" parent="1" vertex="1">
                    <mxGeometry x="112.5" y="180" width="40" height="40" as="geometry"/>
                </mxCell>
                <mxCell id="11" value="p" style="rounded=1;whiteSpace=wrap;html=1;align=center;fontSize=20;shadow=0;" parent="1" vertex="1">
                    <mxGeometry x="112.5" y="230" width="40" height="40" as="geometry"/>
                </mxCell>
                <mxCell id="12" value="" style="verticalLabelPosition=bottom;verticalAlign=top;html=1;shape=mxgraph.basic.acute_triangle;dx=0.5;fillColor=#6a00ff;strokeColor=#3700CC;fontColor=#ffffff;shadow=1;" parent="1" vertex="1">
                    <mxGeometry x="10" y="340" width="80" height="130" as="geometry"/>
                </mxCell>
                <mxCell id="13" value="a" style="text;html=1;strokeColor=none;fillColor=none;align=center;verticalAlign=middle;whiteSpace=wrap;rounded=0;fontSize=20;shadow=1;" parent="1" vertex="1">
                    <mxGeometry x="30" y="420" width="40" height="20" as="geometry"/>
                </mxCell>
                <mxCell id="15" value="" style="verticalLabelPosition=bottom;verticalAlign=top;html=1;shape=mxgraph.basic.acute_triangle;dx=0.5;fillColor=#6a00ff;strokeColor=#3700CC;fontColor=#ffffff;shadow=1;" parent="1" vertex="1">
                    <mxGeometry x="125" y="340" width="80" height="130" as="geometry"/>
                </mxCell>
                <mxCell id="16" value="b" style="text;html=1;strokeColor=none;fillColor=none;align=center;verticalAlign=middle;whiteSpace=wrap;rounded=0;fontSize=20;shadow=1;" parent="1" vertex="1">
                    <mxGeometry x="145" y="420" width="40" height="20" as="geometry"/>
                </mxCell>
                <mxCell id="19" value="" style="verticalLabelPosition=bottom;verticalAlign=top;html=1;shape=mxgraph.basic.acute_triangle;dx=0.5;fillColor=#6a00ff;strokeColor=#3700CC;fontColor=#ffffff;shadow=1;" parent="1" vertex="1">
                    <mxGeometry x="205" y="170" width="80" height="130" as="geometry"/>
                </mxCell>
                <mxCell id="20" value="c" style="text;html=1;strokeColor=none;fillColor=none;align=center;verticalAlign=middle;whiteSpace=wrap;rounded=0;fontSize=20;shadow=1;" parent="1" vertex="1">
                    <mxGeometry x="225" y="250" width="40" height="20" as="geometry"/>
                </mxCell>
                <mxCell id="23" value="p &amp;lt; q" style="text;html=1;strokeColor=none;fillColor=none;align=center;verticalAlign=middle;whiteSpace=wrap;rounded=0;fontSize=31;" parent="1" vertex="1">
                    <mxGeometry x="345" y="120" width="80" height="20" as="geometry"/>
                </mxCell>
                <mxCell id="25" style="edgeStyle=orthogonalEdgeStyle;html=1;exitX=0.25;exitY=1;exitDx=0;exitDy=0;entryX=0;entryY=0;entryDx=40;entryDy=0;entryPerimeter=0;fontSize=20;endArrow=open;endFill=0;endSize=15;" parent="1" source="26" target="42" edge="1">
                    <mxGeometry relative="1" as="geometry"/>
                </mxCell>
                <mxCell id="45" style="edgeStyle=orthogonalEdgeStyle;html=1;exitX=0.75;exitY=1;exitDx=0;exitDy=0;entryX=0.5;entryY=0;entryDx=0;entryDy=0;fontSize=31;endArrow=open;endFill=0;endSize=15;" parent="1" source="26" target="33" edge="1">
                    <mxGeometry relative="1" as="geometry"/>
                </mxCell>
                <mxCell id="26" value="" style="rounded=1;whiteSpace=wrap;html=1;arcSize=8;fillColor=#1ba1e2;strokeColor=#006EAF;fontColor=#ffffff;shadow=1;" parent="1" vertex="1">
                    <mxGeometry x="530" y="10" width="110" height="110" as="geometry"/>
                </mxCell>
                <mxCell id="27" value="&lt;span&gt;&amp;nbsp; Priority&lt;/span&gt;" style="rounded=1;whiteSpace=wrap;html=1;align=left;fillColor=#60a917;strokeColor=#2D7600;fontColor=#ffffff;shadow=1;" parent="1" vertex="1">
                    <mxGeometry x="540" y="70" width="90" height="40" as="geometry"/>
                </mxCell>
                <mxCell id="28" value="&amp;nbsp; Value" style="rounded=1;whiteSpace=wrap;html=1;align=left;fillColor=#fa6800;strokeColor=#C73500;fontColor=#000000;shadow=1;" parent="1" vertex="1">
                    <mxGeometry x="540" y="20" width="90" height="40" as="geometry"/>
                </mxCell>
                <mxCell id="29" value="x" style="rounded=1;whiteSpace=wrap;html=1;align=center;fontSize=20;shadow=0;" parent="1" vertex="1">
                    <mxGeometry x="590" y="20" width="40" height="40" as="geometry"/>
                </mxCell>
                <mxCell id="30" value="p" style="rounded=1;whiteSpace=wrap;html=1;align=center;fontSize=20;shadow=0;" parent="1" vertex="1">
                    <mxGeometry x="590" y="70" width="40" height="40" as="geometry"/>
                </mxCell>
                <mxCell id="31" style="edgeStyle=orthogonalEdgeStyle;html=1;exitX=0.25;exitY=1;exitDx=0;exitDy=0;entryX=0;entryY=0;entryDx=40;entryDy=0;entryPerimeter=0;fontSize=20;endArrow=open;endFill=0;endSize=15;" parent="1" source="33" target="38" edge="1">
                    <mxGeometry relative="1" as="geometry">
                        <mxPoint x="572.5" y="330" as="targetPoint"/>
                    </mxGeometry>
                </mxCell>
                <mxCell id="32" style="edgeStyle=orthogonalEdgeStyle;html=1;exitX=0.75;exitY=1;exitDx=0;exitDy=0;entryX=0;entryY=0;entryDx=40;entryDy=0;entryPerimeter=0;fontSize=20;endArrow=open;endFill=0;endSize=15;" parent="1" source="33" target="40" edge="1">
                    <mxGeometry relative="1" as="geometry"/>
                </mxCell>
                <mxCell id="33" value="" style="rounded=1;whiteSpace=wrap;html=1;arcSize=8;fillColor=#1ba1e2;strokeColor=#006EAF;fontColor=#ffffff;shadow=1;" parent="1" vertex="1">
                    <mxGeometry x="602.5" y="180" width="110" height="110" as="geometry"/>
                </mxCell>
                <mxCell id="34" value="&lt;span&gt;&amp;nbsp; Priority&lt;/span&gt;" style="rounded=1;whiteSpace=wrap;html=1;align=left;fillColor=#60a917;strokeColor=#2D7600;fontColor=#ffffff;shadow=1;" parent="1" vertex="1">
                    <mxGeometry x="612.5" y="240" width="90" height="40" as="geometry"/>
                </mxCell>
                <mxCell id="35" value="&amp;nbsp; Value" style="rounded=1;whiteSpace=wrap;html=1;align=left;fillColor=#fa6800;strokeColor=#C73500;fontColor=#000000;shadow=1;" parent="1" vertex="1">
                    <mxGeometry x="612.5" y="190" width="90" height="40" as="geometry"/>
                </mxCell>
                <mxCell id="36" value="y" style="rounded=1;whiteSpace=wrap;html=1;align=center;fontSize=20;shadow=0;" parent="1" vertex="1">
                    <mxGeometry x="662.5" y="190" width="40" height="40" as="geometry"/>
                </mxCell>
                <mxCell id="37" value="q" style="rounded=1;whiteSpace=wrap;html=1;align=center;fontSize=20;shadow=0;" parent="1" vertex="1">
                    <mxGeometry x="662.5" y="240" width="40" height="40" as="geometry"/>
                </mxCell>
                <mxCell id="38" value="" style="verticalLabelPosition=bottom;verticalAlign=top;html=1;shape=mxgraph.basic.acute_triangle;dx=0.5;fillColor=#6a00ff;strokeColor=#3700CC;fontColor=#ffffff;shadow=1;" parent="1" vertex="1">
                    <mxGeometry x="560" y="350" width="80" height="130" as="geometry"/>
                </mxCell>
                <mxCell id="39" value="b" style="text;html=1;strokeColor=none;fillColor=none;align=center;verticalAlign=middle;whiteSpace=wrap;rounded=0;fontSize=20;shadow=1;" parent="1" vertex="1">
                    <mxGeometry x="580" y="430" width="40" height="20" as="geometry"/>
                </mxCell>
                <mxCell id="40" value="" style="verticalLabelPosition=bottom;verticalAlign=top;html=1;shape=mxgraph.basic.acute_triangle;dx=0.5;fillColor=#6a00ff;strokeColor=#3700CC;fontColor=#ffffff;shadow=1;" parent="1" vertex="1">
                    <mxGeometry x="675" y="350" width="80" height="130" as="geometry"/>
                </mxCell>
                <mxCell id="41" value="c" style="text;html=1;strokeColor=none;fillColor=none;align=center;verticalAlign=middle;whiteSpace=wrap;rounded=0;fontSize=20;shadow=1;" parent="1" vertex="1">
                    <mxGeometry x="695" y="430" width="40" height="20" as="geometry"/>
                </mxCell>
                <mxCell id="42" value="" style="verticalLabelPosition=bottom;verticalAlign=top;html=1;shape=mxgraph.basic.acute_triangle;dx=0.5;fillColor=#6a00ff;strokeColor=#3700CC;fontColor=#ffffff;shadow=1;" parent="1" vertex="1">
                    <mxGeometry x="480" y="175" width="80" height="130" as="geometry"/>
                </mxCell>
                <mxCell id="43" value="a" style="text;html=1;strokeColor=none;fillColor=none;align=center;verticalAlign=middle;whiteSpace=wrap;rounded=0;fontSize=20;shadow=1;" parent="1" vertex="1">
                    <mxGeometry x="500" y="255" width="40" height="20" as="geometry"/>
                </mxCell>
                <mxCell id="46" value="" style="endArrow=open;html=1;fontSize=31;endSize=30;endFill=0;" parent="1" edge="1">
                    <mxGeometry width="50" height="50" relative="1" as="geometry">
                        <mxPoint x="320" y="169.43" as="sourcePoint"/>
                        <mxPoint x="450" y="169.43" as="targetPoint"/>
                    </mxGeometry>
                </mxCell>
                <mxCell id="89" value="p &amp;gt; q" style="text;html=1;strokeColor=none;fillColor=none;align=center;verticalAlign=middle;whiteSpace=wrap;rounded=0;fontSize=31;" parent="1" vertex="1">
                    <mxGeometry x="345" y="300" width="80" height="20" as="geometry"/>
                </mxCell>
                <mxCell id="90" value="" style="endArrow=none;html=1;fontSize=31;endSize=30;endFill=0;startArrow=open;startFill=0;startSize=30;" parent="1" edge="1">
                    <mxGeometry width="50" height="50" relative="1" as="geometry">
                        <mxPoint x="320" y="349.43" as="sourcePoint"/>
                        <mxPoint x="450" y="349.43" as="targetPoint"/>
                    </mxGeometry>
                </mxCell>
                <mxCell id="91" value="lnode" style="text;html=1;strokeColor=none;fillColor=none;align=center;verticalAlign=middle;whiteSpace=wrap;rounded=0;fontSize=31;" parent="1" vertex="1">
                    <mxGeometry x="340" y="190" width="80" height="20" as="geometry"/>
                </mxCell>
                <mxCell id="93" value="rnode" style="text;html=1;strokeColor=none;fillColor=none;align=center;verticalAlign=middle;whiteSpace=wrap;rounded=0;fontSize=31;" parent="1" vertex="1">
                    <mxGeometry x="345" y="379.99999999999994" width="80" height="20" as="geometry"/>
                </mxCell>
            </root>
        </mxGraphModel>
    </diagram>
</mxfile>